<svg width="44" height="44" viewBox="0 0 44 44" fill="none" xmlns="http://www.w3.org/2000/svg">
<rect width="44" height="44" rx="7" fill="white"/>
<path d="M33.375 11.5C34.8242 11.5 36 12.6752 36 14.125C36 14.9508 35.6117 15.7273 34.95 16.225L23.05 25.15C22.4266 25.6148 21.5734 25.6148 20.95 25.15L9.05 16.225C8.38899 15.7273 8 14.9508 8 14.125C8 12.6752 9.17523 11.5 10.625 11.5H33.375ZM19.9 26.55C21.1469 27.4852 22.8531 27.4852 24.1 26.55L36 17.625V29C36 30.9305 34.4305 32.5 32.5 32.5H11.5C9.5668 32.5 8 30.9305 8 29V17.625L19.9 26.55Z" fill="#2F4A75"/>
</svg>
