<svg width="44" height="44" viewBox="0 0 44 44" fill="none" xmlns="http://www.w3.org/2000/svg">
<path d="M36.6667 0H7.33333C3.2835 0 0 3.2835 0 7.33333V36.6667C0 40.7165 3.2835 44 7.33333 44H36.6667C40.7165 44 44 40.7165 44 36.6667V7.33333C44 3.2835 40.7165 0 36.6667 0ZM14.6667 35.75H10.0833V17.4167H14.6667V35.75ZM14.6932 13.7583C14.1002 14.3633 13.3265 14.6667 12.375 14.6667C11.4345 14.6667 10.6654 14.3541 10.0659 13.7289C9.46642 13.1037 9.16667 12.3365 9.16667 11.429C9.16667 10.494 9.46642 9.73133 10.0659 9.13917C10.6654 8.54608 11.4345 8.25 12.375 8.25C13.3265 8.25 14.1002 8.54608 14.6932 9.13825C15.2863 9.73042 15.5833 10.494 15.5833 11.429C15.5833 12.3768 15.2863 13.1533 14.6932 13.7583ZM35.75 35.75H31.1667V25.5631C31.1667 22.7223 29.5295 21.0833 27.5 21.0833C26.5219 21.0833 25.4155 21.6773 24.7821 22.4299C24.1487 23.1825 23.8333 24.1368 23.8333 25.2945V35.75H19.25V17.4167H23.8333V20.317H23.9048C25.2542 18.0849 27.2168 16.9767 29.7953 16.9693C33.4583 16.9583 35.75 19.7083 35.75 24.5245V35.75Z" fill="white"/>
</svg>
